<svg id="visual" viewBox="0 0 1920 300" width="1920" height="300" xmlns="http://www.w3.org/2000/svg" xmlns:xlink="http://www.w3.org/1999/xlink" version="1.1"><rect x="0" y="0" width="1920" height="300" fill="#FFFFFF"></rect><path d="M0 56L35.5 79C71 102 142 148 213.2 166.8C284.3 185.7 355.7 177.3 426.8 172C498 166.7 569 164.3 640 144.2C711 124 782 86 853.2 69.5C924.3 53 995.7 58 1066.8 78.2C1138 98.3 1209 133.7 1280 152.5C1351 171.3 1422 173.7 1493.2 176.2C1564.3 178.7 1635.7 181.3 1706.8 160.2C1778 139 1849 94 1884.5 71.5L1920 49" fill="none" stroke-linecap="round" stroke-linejoin="miter" stroke="#4ade80" stroke-width="40"></path></svg>