<svg id="visual" viewBox="0 0 1920 300" width="1920" height="300" xmlns="http://www.w3.org/2000/svg" xmlns:xlink="http://www.w3.org/1999/xlink" version="1.1"><rect x="0" y="0" width="1920" height="300" fill="#FFFFFF"></rect><path d="M0 193L18.8 187.8C37.7 182.7 75.3 172.3 113 164.8C150.7 157.3 188.3 152.7 226 148.2C263.7 143.7 301.3 139.3 339 137C376.7 134.7 414.3 134.3 452 143.5C489.7 152.7 527.3 171.3 565 171.8C602.7 172.3 640.3 154.7 678 153.2C715.7 151.7 753.3 166.3 791 164.2C828.7 162 866.3 143 903.8 143.7C941.3 144.3 978.7 164.7 1016.2 174.3C1053.7 184 1091.3 183 1129 176C1166.7 169 1204.3 156 1242 151.5C1279.7 147 1317.3 151 1355 152.5C1392.7 154 1430.3 153 1468 158.2C1505.7 163.3 1543.3 174.7 1581 169.7C1618.7 164.7 1656.3 143.3 1694 139C1731.7 134.7 1769.3 147.3 1807 155.2C1844.7 163 1882.3 166 1901.2 167.5L1920 169L1920 301L1901.2 301C1882.3 301 1844.7 301 1807 301C1769.3 301 1731.7 301 1694 301C1656.3 301 1618.7 301 1581 301C1543.3 301 1505.7 301 1468 301C1430.3 301 1392.7 301 1355 301C1317.3 301 1279.7 301 1242 301C1204.3 301 1166.7 301 1129 301C1091.3 301 1053.7 301 1016.2 301C978.7 301 941.3 301 903.8 301C866.3 301 828.7 301 791 301C753.3 301 715.7 301 678 301C640.3 301 602.7 301 565 301C527.3 301 489.7 301 452 301C414.3 301 376.7 301 339 301C301.3 301 263.7 301 226 301C188.3 301 150.7 301 113 301C75.3 301 37.7 301 18.8 301L0 301Z" fill="#4ade80" stroke-linecap="round" stroke-linejoin="miter"></path></svg>