<svg id="visual" viewBox="0 0 1920 1080" width="1920" height="1080" xmlns="http://www.w3.org/2000/svg" xmlns:xlink="http://www.w3.org/1999/xlink" version="1.1"><rect x="0" y="0" width="1920" height="1080" fill="#ffffff"></rect><path d="M0 616L45.7 582.2C91.3 548.3 182.7 480.7 274.2 452.3C365.7 424 457.3 435 548.8 459C640.3 483 731.7 520 823 547.3C914.3 574.7 1005.7 592.3 1097 576.7C1188.3 561 1279.7 512 1371.2 514.2C1462.7 516.3 1554.3 569.7 1645.8 568.7C1737.3 567.7 1828.7 512.3 1874.3 484.7L1920 457L1920 0L1874.3 0C1828.7 0 1737.3 0 1645.8 0C1554.3 0 1462.7 0 1371.2 0C1279.7 0 1188.3 0 1097 0C1005.7 0 914.3 0 823 0C731.7 0 640.3 0 548.8 0C457.3 0 365.7 0 274.2 0C182.7 0 91.3 0 45.7 0L0 0Z" fill="#ff9890"></path><path d="M0 400L45.7 408.5C91.3 417 182.7 434 274.2 428.2C365.7 422.3 457.3 393.7 548.8 390.8C640.3 388 731.7 411 823 429.5C914.3 448 1005.7 462 1097 466C1188.3 470 1279.7 464 1371.2 441.3C1462.7 418.7 1554.3 379.3 1645.8 365.3C1737.3 351.3 1828.7 362.7 1874.3 368.3L1920 374L1920 0L1874.3 0C1828.7 0 1737.3 0 1645.8 0C1554.3 0 1462.7 0 1371.2 0C1279.7 0 1188.3 0 1097 0C1005.7 0 914.3 0 823 0C731.7 0 640.3 0 548.8 0C457.3 0 365.7 0 274.2 0C182.7 0 91.3 0 45.7 0L0 0Z" fill="#f4878c"></path><path d="M0 273L45.7 281.2C91.3 289.3 182.7 305.7 274.2 327.8C365.7 350 457.3 378 548.8 377.8C640.3 377.7 731.7 349.3 823 324.2C914.3 299 1005.7 277 1097 282.3C1188.3 287.7 1279.7 320.3 1371.2 315.2C1462.7 310 1554.3 267 1645.8 267.7C1737.3 268.3 1828.7 312.7 1874.3 334.8L1920 357L1920 0L1874.3 0C1828.7 0 1737.3 0 1645.8 0C1554.3 0 1462.7 0 1371.2 0C1279.7 0 1188.3 0 1097 0C1005.7 0 914.3 0 823 0C731.7 0 640.3 0 548.8 0C457.3 0 365.7 0 274.2 0C182.7 0 91.3 0 45.7 0L0 0Z" fill="#e87689"></path><path d="M0 296L45.7 271.5C91.3 247 182.7 198 274.2 174C365.7 150 457.3 151 548.8 162.3C640.3 173.7 731.7 195.3 823 207C914.3 218.7 1005.7 220.3 1097 220.3C1188.3 220.3 1279.7 218.7 1371.2 212.8C1462.7 207 1554.3 197 1645.8 186.2C1737.3 175.3 1828.7 163.7 1874.3 157.8L1920 152L1920 0L1874.3 0C1828.7 0 1737.3 0 1645.8 0C1554.3 0 1462.7 0 1371.2 0C1279.7 0 1188.3 0 1097 0C1005.7 0 914.3 0 823 0C731.7 0 640.3 0 548.8 0C457.3 0 365.7 0 274.2 0C182.7 0 91.3 0 45.7 0L0 0Z" fill="#da6688"></path><path d="M0 124L45.7 119.2C91.3 114.3 182.7 104.7 274.2 96.2C365.7 87.7 457.3 80.3 548.8 90.3C640.3 100.3 731.7 127.7 823 134C914.3 140.3 1005.7 125.7 1097 118.2C1188.3 110.7 1279.7 110.3 1371.2 114.2C1462.7 118 1554.3 126 1645.8 132.8C1737.3 139.7 1828.7 145.3 1874.3 148.2L1920 151L1920 0L1874.3 0C1828.7 0 1737.3 0 1645.8 0C1554.3 0 1462.7 0 1371.2 0C1279.7 0 1188.3 0 1097 0C1005.7 0 914.3 0 823 0C731.7 0 640.3 0 548.8 0C457.3 0 365.7 0 274.2 0C182.7 0 91.3 0 45.7 0L0 0Z" fill="#ca5887"></path></svg>