<svg id="visual" viewBox="0 0 1920 300" width="1920" height="300" xmlns="http://www.w3.org/2000/svg" xmlns:xlink="http://www.w3.org/1999/xlink" version="1.1"><path d="M0 161L40 153.3C80 145.7 160 130.3 240 127.5C320 124.7 400 134.3 480 142.8C560 151.3 640 158.7 720 153.5C800 148.3 880 130.7 960 113C1040 95.3 1120 77.7 1200 71.2C1280 64.7 1360 69.3 1440 82.5C1520 95.7 1600 117.3 1680 115.7C1760 114 1840 89 1880 76.5L1920 64L1920 0L1880 0C1840 0 1760 0 1680 0C1600 0 1520 0 1440 0C1360 0 1280 0 1200 0C1120 0 1040 0 960 0C880 0 800 0 720 0C640 0 560 0 480 0C400 0 320 0 240 0C160 0 80 0 40 0L0 0Z" fill="#E16D0F" stroke-linecap="round" stroke-linejoin="miter"></path></svg>