<svg id="visual" viewBox="0 0 1920 300" width="1920" height="300" xmlns="http://www.w3.org/2000/svg" xmlns:xlink="http://www.w3.org/1999/xlink" version="1.1"><rect x="0" y="0" width="1920" height="300" fill="#FFFFFF"></rect><path d="M0 168L18.8 164.2C37.7 160.3 75.3 152.7 113 147.7C150.7 142.7 188.3 140.3 226 135.3C263.7 130.3 301.3 122.7 339 119.8C376.7 117 414.3 119 452 128C489.7 137 527.3 153 565 155.2C602.7 157.3 640.3 145.7 678 141.5C715.7 137.3 753.3 140.7 791 139.5C828.7 138.3 866.3 132.7 903.8 132.7C941.3 132.7 978.7 138.3 1016.2 135.8C1053.7 133.3 1091.3 122.7 1129 127.2C1166.7 131.7 1204.3 151.3 1242 161.5C1279.7 171.7 1317.3 172.3 1355 171.7C1392.7 171 1430.3 169 1468 162.2C1505.7 155.3 1543.3 143.7 1581 141C1618.7 138.3 1656.3 144.7 1694 149C1731.7 153.3 1769.3 155.7 1807 151.2C1844.7 146.7 1882.3 135.3 1901.2 129.7L1920 124L1920 0L1901.2 0C1882.3 0 1844.7 0 1807 0C1769.3 0 1731.7 0 1694 0C1656.3 0 1618.7 0 1581 0C1543.3 0 1505.7 0 1468 0C1430.3 0 1392.7 0 1355 0C1317.3 0 1279.7 0 1242 0C1204.3 0 1166.7 0 1129 0C1091.3 0 1053.7 0 1016.2 0C978.7 0 941.3 0 903.8 0C866.3 0 828.7 0 791 0C753.3 0 715.7 0 678 0C640.3 0 602.7 0 565 0C527.3 0 489.7 0 452 0C414.3 0 376.7 0 339 0C301.3 0 263.7 0 226 0C188.3 0 150.7 0 113 0C75.3 0 37.7 0 18.8 0L0 0Z" fill="#4ade80" stroke-linecap="round" stroke-linejoin="miter"></path></svg>