<svg id="visual" viewBox="0 0 1920 1080" width="1920" height="1080" xmlns="http://www.w3.org/2000/svg" xmlns:xlink="http://www.w3.org/1999/xlink" version="1.1"><rect x="0" y="0" width="1920" height="1080" fill="#ffffff"></rect><path d="M0 459L45.7 451.2C91.3 443.3 182.7 427.7 274.2 414.5C365.7 401.3 457.3 390.7 548.8 358.8C640.3 327 731.7 274 823 250.5C914.3 227 1005.7 233 1097 253.2C1188.3 273.3 1279.7 307.7 1371.2 326.3C1462.7 345 1554.3 348 1645.8 351.3C1737.3 354.7 1828.7 358.3 1874.3 360.2L1920 362L1920 1081L1874.3 1081C1828.7 1081 1737.3 1081 1645.8 1081C1554.3 1081 1462.7 1081 1371.2 1081C1279.7 1081 1188.3 1081 1097 1081C1005.7 1081 914.3 1081 823 1081C731.7 1081 640.3 1081 548.8 1081C457.3 1081 365.7 1081 274.2 1081C182.7 1081 91.3 1081 45.7 1081L0 1081Z" fill="#4b03ba"></path><path d="M0 496L45.7 494.5C91.3 493 182.7 490 274.2 472.7C365.7 455.3 457.3 423.7 548.8 450.5C640.3 477.3 731.7 562.7 823 596C914.3 629.3 1005.7 610.7 1097 591.8C1188.3 573 1279.7 554 1371.2 524.7C1462.7 495.3 1554.3 455.7 1645.8 450.3C1737.3 445 1828.7 474 1874.3 488.5L1920 503L1920 1081L1874.3 1081C1828.7 1081 1737.3 1081 1645.8 1081C1554.3 1081 1462.7 1081 1371.2 1081C1279.7 1081 1188.3 1081 1097 1081C1005.7 1081 914.3 1081 823 1081C731.7 1081 640.3 1081 548.8 1081C457.3 1081 365.7 1081 274.2 1081C182.7 1081 91.3 1081 45.7 1081L0 1081Z" fill="#5802dc"></path><path d="M0 757L45.7 730.5C91.3 704 182.7 651 274.2 612.3C365.7 573.7 457.3 549.3 548.8 571.2C640.3 593 731.7 661 823 693C914.3 725 1005.7 721 1097 692.7C1188.3 664.3 1279.7 611.7 1371.2 595C1462.7 578.3 1554.3 597.7 1645.8 587.3C1737.3 577 1828.7 537 1874.3 517L1920 497L1920 1081L1874.3 1081C1828.7 1081 1737.3 1081 1645.8 1081C1554.3 1081 1462.7 1081 1371.2 1081C1279.7 1081 1188.3 1081 1097 1081C1005.7 1081 914.3 1081 823 1081C731.7 1081 640.3 1081 548.8 1081C457.3 1081 365.7 1081 274.2 1081C182.7 1081 91.3 1081 45.7 1081L0 1081Z" fill="#6600ff"></path><path d="M0 786L45.7 799.3C91.3 812.7 182.7 839.3 274.2 849C365.7 858.7 457.3 851.3 548.8 844.7C640.3 838 731.7 832 823 823.3C914.3 814.7 1005.7 803.3 1097 775.2C1188.3 747 1279.7 702 1371.2 683C1462.7 664 1554.3 671 1645.8 678.3C1737.3 685.7 1828.7 693.3 1874.3 697.2L1920 701L1920 1081L1874.3 1081C1828.7 1081 1737.3 1081 1645.8 1081C1554.3 1081 1462.7 1081 1371.2 1081C1279.7 1081 1188.3 1081 1097 1081C1005.7 1081 914.3 1081 823 1081C731.7 1081 640.3 1081 548.8 1081C457.3 1081 365.7 1081 274.2 1081C182.7 1081 91.3 1081 45.7 1081L0 1081Z" fill="#8642ff"></path><path d="M0 905L45.7 904.2C91.3 903.3 182.7 901.7 274.2 905.8C365.7 910 457.3 920 548.8 927.2C640.3 934.3 731.7 938.7 823 933.2C914.3 927.7 1005.7 912.3 1097 915.5C1188.3 918.7 1279.7 940.3 1371.2 932.8C1462.7 925.3 1554.3 888.7 1645.8 866.3C1737.3 844 1828.7 836 1874.3 832L1920 828L1920 1081L1874.3 1081C1828.7 1081 1737.3 1081 1645.8 1081C1554.3 1081 1462.7 1081 1371.2 1081C1279.7 1081 1188.3 1081 1097 1081C1005.7 1081 914.3 1081 823 1081C731.7 1081 640.3 1081 548.8 1081C457.3 1081 365.7 1081 274.2 1081C182.7 1081 91.3 1081 45.7 1081L0 1081Z" fill="#a067ff"></path></svg>