<svg id="visual" viewBox="0 0 1920 300" width="1920" height="300" xmlns="http://www.w3.org/2000/svg" xmlns:xlink="http://www.w3.org/1999/xlink" version="1.1"><path d="M0 85L53.3 83.8C106.7 82.7 213.3 80.3 320 84.7C426.7 89 533.3 100 640 115.5C746.7 131 853.3 151 960 163.3C1066.7 175.7 1173.3 180.3 1280 174.7C1386.7 169 1493.3 153 1600 135.2C1706.7 117.3 1813.3 97.7 1866.7 87.8L1920 78L1920 301L1866.7 301C1813.3 301 1706.7 301 1600 301C1493.3 301 1386.7 301 1280 301C1173.3 301 1066.7 301 960 301C853.3 301 746.7 301 640 301C533.3 301 426.7 301 320 301C213.3 301 106.7 301 53.3 301L0 301Z" fill="#004CBB" stroke-linecap="round" stroke-linejoin="miter"></path></svg>