<svg id="visual" viewBox="0 0 1920 1080" width="1920" height="1080" xmlns="http://www.w3.org/2000/svg" xmlns:xlink="http://www.w3.org/1999/xlink" version="1.1"><path d="M0 744L45.7 737.3C91.3 730.7 182.7 717.3 274.2 709.8C365.7 702.3 457.3 700.7 548.8 709.8C640.3 719 731.7 739 823 742.5C914.3 746 1005.7 733 1097 712.8C1188.3 692.7 1279.7 665.3 1371.2 676.7C1462.7 688 1554.3 738 1645.8 750.7C1737.3 763.3 1828.7 738.7 1874.3 726.3L1920 714L1920 1081L1874.3 1081C1828.7 1081 1737.3 1081 1645.8 1081C1554.3 1081 1462.7 1081 1371.2 1081C1279.7 1081 1188.3 1081 1097 1081C1005.7 1081 914.3 1081 823 1081C731.7 1081 640.3 1081 548.8 1081C457.3 1081 365.7 1081 274.2 1081C182.7 1081 91.3 1081 45.7 1081L0 1081Z" fill="#ffa35e"></path><path d="M0 855L45.7 857.3C91.3 859.7 182.7 864.3 274.2 850.7C365.7 837 457.3 805 548.8 799.8C640.3 794.7 731.7 816.3 823 826.8C914.3 837.3 1005.7 836.7 1097 824C1188.3 811.3 1279.7 786.7 1371.2 770.3C1462.7 754 1554.3 746 1645.8 741.8C1737.3 737.7 1828.7 737.3 1874.3 737.2L1920 737L1920 1081L1874.3 1081C1828.7 1081 1737.3 1081 1645.8 1081C1554.3 1081 1462.7 1081 1371.2 1081C1279.7 1081 1188.3 1081 1097 1081C1005.7 1081 914.3 1081 823 1081C731.7 1081 640.3 1081 548.8 1081C457.3 1081 365.7 1081 274.2 1081C182.7 1081 91.3 1081 45.7 1081L0 1081Z" fill="#fa862f"></path><path d="M0 835L45.7 850.7C91.3 866.3 182.7 897.7 274.2 909.2C365.7 920.7 457.3 912.3 548.8 907.5C640.3 902.7 731.7 901.3 823 902.5C914.3 903.7 1005.7 907.3 1097 914.7C1188.3 922 1279.7 933 1371.2 932.5C1462.7 932 1554.3 920 1645.8 922.2C1737.3 924.3 1828.7 940.7 1874.3 948.8L1920 957L1920 1081L1874.3 1081C1828.7 1081 1737.3 1081 1645.8 1081C1554.3 1081 1462.7 1081 1371.2 1081C1279.7 1081 1188.3 1081 1097 1081C1005.7 1081 914.3 1081 823 1081C731.7 1081 640.3 1081 548.8 1081C457.3 1081 365.7 1081 274.2 1081C182.7 1081 91.3 1081 45.7 1081L0 1081Z" fill="#e16d0f"></path><path d="M0 960L45.7 963.3C91.3 966.7 182.7 973.3 274.2 967C365.7 960.7 457.3 941.3 548.8 931C640.3 920.7 731.7 919.3 823 935.2C914.3 951 1005.7 984 1097 994.3C1188.3 1004.7 1279.7 992.3 1371.2 991.2C1462.7 990 1554.3 1000 1645.8 998.3C1737.3 996.7 1828.7 983.3 1874.3 976.7L1920 970L1920 1081L1874.3 1081C1828.7 1081 1737.3 1081 1645.8 1081C1554.3 1081 1462.7 1081 1371.2 1081C1279.7 1081 1188.3 1081 1097 1081C1005.7 1081 914.3 1081 823 1081C731.7 1081 640.3 1081 548.8 1081C457.3 1081 365.7 1081 274.2 1081C182.7 1081 91.3 1081 45.7 1081L0 1081Z" fill="#b5580e"></path></svg>