<svg id="visual" viewBox="0 0 1920 1080" width="1920" height="1080" xmlns="http://www.w3.org/2000/svg" xmlns:xlink="http://www.w3.org/1999/xlink" version="1.1"><path d="M0 295L45.7 296.2C91.3 297.3 182.7 299.7 274.2 299.7C365.7 299.7 457.3 297.3 548.8 316.7C640.3 336 731.7 377 823 385.2C914.3 393.3 1005.7 368.7 1097 355C1188.3 341.3 1279.7 338.7 1371.2 333.3C1462.7 328 1554.3 320 1645.8 328.2C1737.3 336.3 1828.7 360.7 1874.3 372.8L1920 385L1920 0L1874.3 0C1828.7 0 1737.3 0 1645.8 0C1554.3 0 1462.7 0 1371.2 0C1279.7 0 1188.3 0 1097 0C1005.7 0 914.3 0 823 0C731.7 0 640.3 0 548.8 0C457.3 0 365.7 0 274.2 0C182.7 0 91.3 0 45.7 0L0 0Z" fill="#6198ff"></path><path d="M0 337L45.7 330.7C91.3 324.3 182.7 311.7 274.2 309.2C365.7 306.7 457.3 314.3 548.8 307.3C640.3 300.3 731.7 278.7 823 282C914.3 285.3 1005.7 313.7 1097 322.8C1188.3 332 1279.7 322 1371.2 318.8C1462.7 315.7 1554.3 319.3 1645.8 311C1737.3 302.7 1828.7 282.3 1874.3 272.2L1920 262L1920 0L1874.3 0C1828.7 0 1737.3 0 1645.8 0C1554.3 0 1462.7 0 1371.2 0C1279.7 0 1188.3 0 1097 0C1005.7 0 914.3 0 823 0C731.7 0 640.3 0 548.8 0C457.3 0 365.7 0 274.2 0C182.7 0 91.3 0 45.7 0L0 0Z" fill="#2d77ff"></path><path d="M0 126L45.7 137.7C91.3 149.3 182.7 172.7 274.2 189.2C365.7 205.7 457.3 215.3 548.8 221.3C640.3 227.3 731.7 229.7 823 212.8C914.3 196 1005.7 160 1097 163.8C1188.3 167.7 1279.7 211.3 1371.2 232.2C1462.7 253 1554.3 251 1645.8 229.8C1737.3 208.7 1828.7 168.3 1874.3 148.2L1920 128L1920 0L1874.3 0C1828.7 0 1737.3 0 1645.8 0C1554.3 0 1462.7 0 1371.2 0C1279.7 0 1188.3 0 1097 0C1005.7 0 914.3 0 823 0C731.7 0 640.3 0 548.8 0C457.3 0 365.7 0 274.2 0C182.7 0 91.3 0 45.7 0L0 0Z" fill="#005de8"></path><path d="M0 161L45.7 155C91.3 149 182.7 137 274.2 134.8C365.7 132.7 457.3 140.3 548.8 131.7C640.3 123 731.7 98 823 90.7C914.3 83.3 1005.7 93.7 1097 105.8C1188.3 118 1279.7 132 1371.2 126.2C1462.7 120.3 1554.3 94.7 1645.8 81.7C1737.3 68.7 1828.7 68.3 1874.3 68.2L1920 68L1920 0L1874.3 0C1828.7 0 1737.3 0 1645.8 0C1554.3 0 1462.7 0 1371.2 0C1279.7 0 1188.3 0 1097 0C1005.7 0 914.3 0 823 0C731.7 0 640.3 0 548.8 0C457.3 0 365.7 0 274.2 0C182.7 0 91.3 0 45.7 0L0 0Z" fill="#004cbb"></path></svg>