<svg id="visual" viewBox="0 0 675 900" width="675" height="900" xmlns="http://www.w3.org/2000/svg" xmlns:xlink="http://www.w3.org/1999/xlink" version="1.1"><path d="M0 406L61 406L61 307L123 307L123 298L184 298L184 298L245 298L245 289L307 289L307 334L368 334L368 217L430 217L430 136L491 136L491 271L552 271L552 370L614 370L614 397L675 397L675 307L675 0L675 0L614 0L614 0L552 0L552 0L491 0L491 0L430 0L430 0L368 0L368 0L307 0L307 0L245 0L245 0L184 0L184 0L123 0L123 0L61 0L61 0L0 0Z" fill="#fa7268"></path><path d="M0 505L61 505L61 415L123 415L123 469L184 469L184 451L245 451L245 442L307 442L307 523L368 523L368 343L430 343L430 289L491 289L491 442L552 442L552 523L614 523L614 460L675 460L675 451L675 305L675 395L614 395L614 368L552 368L552 269L491 269L491 134L430 134L430 215L368 215L368 332L307 332L307 287L245 287L245 296L184 296L184 296L123 296L123 305L61 305L61 404L0 404Z" fill="#ea5e66"></path><path d="M0 640L61 640L61 595L123 595L123 631L184 631L184 685L245 685L245 631L307 631L307 712L368 712L368 469L430 469L430 514L491 514L491 640L552 640L552 658L614 658L614 667L675 667L675 532L675 449L675 458L614 458L614 521L552 521L552 440L491 440L491 287L430 287L430 341L368 341L368 521L307 521L307 440L245 440L245 449L184 449L184 467L123 467L123 413L61 413L61 503L0 503Z" fill="#d84a64"></path><path d="M0 766L61 766L61 793L123 793L123 811L184 811L184 820L245 820L245 829L307 829L307 829L368 829L368 784L430 784L430 793L491 793L491 847L552 847L552 838L614 838L614 820L675 820L675 748L675 530L675 665L614 665L614 656L552 656L552 638L491 638L491 512L430 512L430 467L368 467L368 710L307 710L307 629L245 629L245 683L184 683L184 629L123 629L123 593L61 593L61 638L0 638Z" fill="#c53762"></path><path d="M0 901L61 901L61 901L123 901L123 901L184 901L184 901L245 901L245 901L307 901L307 901L368 901L368 901L430 901L430 901L491 901L491 901L552 901L552 901L614 901L614 901L675 901L675 901L675 746L675 818L614 818L614 836L552 836L552 845L491 845L491 791L430 791L430 782L368 782L368 827L307 827L307 827L245 827L245 818L184 818L184 809L123 809L123 791L61 791L61 764L0 764Z" fill="#b0235f"></path></svg>